<?xml version="1.0" encoding="utf-8"?>
<!-- Generator: Adobe Illustrator 22.1.0, SVG Export Plug-In . SVG Version: 6.00 Build 0)  -->
<svg version="1.1" id="iconmonstr" xmlns="http://www.w3.org/2000/svg" xmlns:xlink="http://www.w3.org/1999/xlink" x="0px" y="0px"
	 viewBox="0 0 35.9 35.9" style="enable-background:new 0 0 35.9 35.9;" xml:space="preserve">
<style type="text/css">
	.st0{fill:#B0B5BF;}
</style>
<path id="instagram-11" class="st0" d="M17.9,3.2c4.8,0,5.4,0,7.2,0.1c4.9,0.2,7.1,2.5,7.3,7.3c0.1,1.9,0.1,2.5,0.1,7.2
	c0,4.8,0,5.4-0.1,7.2c-0.2,4.8-2.5,7.1-7.3,7.3c-1.9,0.1-2.5,0.1-7.2,0.1c-4.8,0-5.4,0-7.2-0.1c-4.9-0.2-7.1-2.5-7.3-7.3
	c-0.1-1.9-0.1-2.5-0.1-7.2c0-4.8,0-5.4,0.1-7.2c0.2-4.8,2.5-7.1,7.3-7.3C12.6,3.2,13.1,3.2,17.9,3.2z M17.9,0c-4.9,0-5.5,0-7.4,0.1
	C4,0.4,0.4,4,0.1,10.5C0,12.4,0,13.1,0,17.9c0,4.9,0,5.5,0.1,7.4C0.4,31.8,4,35.4,10.5,35.7c1.9,0.1,2.5,0.1,7.4,0.1
	c4.9,0,5.5,0,7.4-0.1c6.5-0.3,10.1-3.9,10.4-10.4c0.1-1.9,0.1-2.5,0.1-7.4c0-4.9,0-5.5-0.1-7.4C35.4,4,31.8,0.4,25.3,0.1
	C23.4,0,22.8,0,17.9,0z M17.9,8.7c-5.1,0-9.2,4.1-9.2,9.2c0,5.1,4.1,9.2,9.2,9.2c5.1,0,9.2-4.1,9.2-9.2C27.1,12.8,23,8.7,17.9,8.7z
	 M17.9,23.9c-3.3,0-6-2.7-6-6c0-3.3,2.7-6,6-6s6,2.7,6,6C23.9,21.2,21.2,23.9,17.9,23.9z M27.5,6.2c-1.2,0-2.2,1-2.2,2.1
	s1,2.1,2.2,2.1c1.2,0,2.1-1,2.1-2.1S28.7,6.2,27.5,6.2z"/>
</svg>
