<?xml version="1.0" encoding="utf-8"?>
<!-- Generator: Adobe Illustrator 22.1.0, SVG Export Plug-In . SVG Version: 6.00 Build 0)  -->
<svg version="1.1" id="Layer_1" xmlns="http://www.w3.org/2000/svg" xmlns:xlink="http://www.w3.org/1999/xlink" x="0px" y="0px"
	 viewBox="0 0 720 249" enable-background="new 0 0 720 249" xml:space="preserve">
<path fill="none" stroke="#FFFFFF" stroke-width="4" stroke-linecap="round" stroke-linejoin="round" stroke-miterlimit="10" d="
	M458.8,90.3l2.2-5.2c0,0,1.2-2.5-1.4-3.5c0,0-9.3-3.1-13.7-3.8"/>
<path fill="none" stroke="#FFFFFF" stroke-width="4" stroke-linecap="round" stroke-linejoin="round" stroke-miterlimit="10" d="
	M268.2,77.7c-4.5,0.7-13.9,3.8-13.9,3.8c-2.6,1-1.4,3.5-1.4,3.5l2.2,5.2"/>
<path fill="none" stroke="#FFFFFF" stroke-width="6" stroke-linecap="round" stroke-linejoin="round" stroke-miterlimit="10" d="
	M380.3,48.6l2.2-8.7c0,0,1.3-4.2-3-5.1c0,0-15.2-2.7-22.3-2.7c-7.1,0-22.6,2.7-22.6,2.7c-4.3,0.9-3,5.1-3,5.1l2.2,8.7"/>
<g>
	<g>
		<path fill="#FFFFFF" d="M53,159.2c16,0,31.9,0,47.9,0c0,4.8,0,9.5,0,14.3c-1.3-1.1-2.7-2.2-4-3.3c-8.6,0.1-17.2,0.2-25.9,0.3
			c0,3.6,0,7.2,0,10.8c5.5-0.1,11-0.3,16.4-0.4c1.3-1.1,2.6-2.3,3.8-3.4c0,5.7,0,11.5,0,17.2c-1.3-1.1-2.6-2.1-3.8-3.2
			c-5.5,0.2-11,0.4-16.4,0.6c0,5.9,0,11.9,0,17.8c1.2,1.3,2.3,2.7,3.5,4c-7.2,0.4-14.3,0.8-21.5,1.3c1.1-1.5,2.1-2.9,3.2-4.4
			c0-15.8,0-31.6,0-47.4C55.1,162,54,160.6,53,159.2z"/>
		<path fill="#FFFFFF" d="M102.7,159.2c7.1,0,14.2,0,21.3,0c-1,1.2-2,2.5-3,3.8c0,14.9,0,29.8,0,44.8c1,1.2,2,2.4,3,3.6
			c-7.1,0.3-14.2,0.7-21.3,1.1c1.1-1.4,2.1-2.8,3.2-4.2c0-15,0-30,0-45C104.8,161.8,103.8,160.5,102.7,159.2z"/>
		<path fill="#FFFFFF" d="M127,159.1c5.3,0,10.6,0,15.9,0c8.7,9.9,17.3,19.5,26,29c0-8.5,0-16.9,0-25.4c-1-1.2-2-2.4-2.9-3.6
			c5.9,0,11.9,0,17.8,0c-1,1.2-2.1,2.5-3.1,3.8c0,15.3,0,30.7-0.1,46c-3.8,0.1-7.6,0.3-11.4,0.4c-9.2-9.5-18.4-19.1-27.6-29
			c0,8.8,0,17.5,0,26.3c1,1.2,2.1,2.5,3.1,3.7c-5.9,0.3-11.9,0.5-17.8,0.8c1-1.3,2-2.7,3-4c0-14.6,0-29.2,0-43.9
			C129,161.9,128,160.5,127,159.1z"/>
		<path fill="#FFFFFF" d="M203.5,159.1c5.7,0,11.4,0,17.2,0c8.3,16.2,16.5,32.2,24.8,47.9c-7.1,0.2-14.1,0.3-21.2,0.5
			c1-1.3,2-2.5,3-3.8c-0.8-1.6-1.5-3.3-2.3-4.9c-8.1,0.2-16.2,0.4-24.3,0.6c-0.9,1.7-1.8,3.4-2.6,5.1c1,1.2,2,2.4,3,3.6
			c-6.1,0.2-12.3,0.4-18.4,0.6c7.5-15.6,15.1-31,22.6-46.1C204.6,161.5,204,160.3,203.5,159.1z M204.1,190.4
			c5.7-0.1,11.3-0.2,17-0.3c-2.8-5.7-5.6-11.5-8.4-17.3C209.9,178.6,207,184.5,204.1,190.4z"/>
		<path fill="#FFFFFF" d="M247.2,159.1c7,0,14,0,21,0c-1,1.2-2,2.4-3,3.6c0,11.4,0,22.7,0,34.1c8-0.1,16-0.2,23.9-0.3
			c1.5-1,2.9-2,4.4-2.9c0,4.2,0,8.4,0,12.6c-15.5,0.2-30.9,0.5-46.4,0.9c1.1-1.2,2.1-2.4,3.2-3.7c0-13.5,0-27.1,0-40.6
			C249.3,161.5,248.3,160.3,247.2,159.1z"/>
		<path fill="#FFFFFF" d="M367.8,158.3c0,5.1,0,10.2,0,15.3c-7-3.4-13.7-5.1-20-5.1c-9.6,0-14.5,4.7-14.5,14.2
			c0,9.2,4.7,13.8,14.1,13.8c3.2,0,5.9-0.3,7.9-0.9c0-3.1,0-6.2,0-9.3c-1-1.2-2-2.4-3-3.6c5.9,0,11.8,0,17.8,0c0,6.3,0,12.7,0,19
			c-5.6,3.2-14.1,4.7-25.4,4.8c-18.1,0.1-27.2-8-27.2-24.3c0-15.7,10.3-23.6,30.9-23.5c5.6,0,10.8,0.9,15.8,2.7
			C365.4,160.3,366.6,159.3,367.8,158.3z"/>
		<path fill="#FFFFFF" d="M373.6,159c10.6,0,21.2,0,31.9,0c12.9,0,19.4,4.7,19.4,14.2c0,7.7-3.8,12.4-11.5,14.1
			c4.6,6.2,9.2,12.4,13.8,18.7c-7.5-0.1-15.1-0.2-22.6-0.2c1-1.2,2.1-2.3,3.1-3.5c-3.2-4.4-6.4-8.8-9.6-13.2c-2.2,0-4.4,0-6.6,0
			c0,4.4,0,8.8,0,13.1c1,1.2,2.1,2.4,3.1,3.5c-7,0-14-0.1-21-0.1c1-1.1,2-2.1,3-3.2c0-13.4,0-26.8,0-40.3
			C375.6,161.2,374.6,160.1,373.6,159z M391.5,168.7c0,3.8,0,7.7,0,11.5c3.4,0,6.9,0,10.3,0c5.2,0,7.9-1.9,7.9-5.9
			c0-3.7-2.7-5.6-8.1-5.6C398.2,168.7,394.9,168.7,391.5,168.7z"/>
		<path fill="#FFFFFF" d="M447.1,159c5.7,0,11.4,0,17.2,0c8.3,15.9,16.6,31.9,24.9,48.2c-7.1-0.2-14.1-0.3-21.2-0.5
			c1-1.2,2-2.4,3-3.6c-0.8-1.7-1.5-3.3-2.3-5c-8.1-0.1-16.2-0.3-24.3-0.4c-0.9,1.6-1.8,3.2-2.6,4.8c1,1.2,2,2.4,3,3.6
			c-6.1-0.1-12.3-0.2-18.4-0.3c7.5-14.4,15-28.9,22.5-43.4C448.2,161.4,447.7,160.2,447.1,159z M447.8,189.3
			c5.7,0.1,11.3,0.1,17,0.2c-2.8-5.7-5.6-11.4-8.4-17.1C453.5,178,450.7,183.7,447.8,189.3z"/>
		<path fill="#FFFFFF" d="M479.1,159.1c7,0,14,0,21,0c-1,1.2-2,2.4-2.9,3.6c4.1,8.8,8.1,17.6,12.2,26.6c4.3-8.8,8.5-17.7,12.8-26.6
			c-1-1.2-2.1-2.4-3.1-3.5c6,0,11.9,0,17.9,0c0,0.1,0,0.1,0,0.2c-7.8,16.3-15.7,32.3-23.5,48.2c-3.5-0.1-6.9-0.2-10.4-0.3
			C494.9,190.9,487,174.9,479.1,159.1z"/>
		<path fill="#FFFFFF" d="M538.4,159.1c7.1,0,14.2,0,21.3,0c-1,1.2-2,2.4-3,3.6c0,14.3,0,28.7,0,43c1,1.2,2,2.5,3,3.7
			c-7.1-0.3-14.2-0.5-21.3-0.8c1.1-1.2,2.1-2.4,3.2-3.6c0-14.1,0-28.1,0-42.2C540.5,161.6,539.5,160.3,538.4,159.1z"/>
		<path fill="#FFFFFF" d="M612.9,159.1c0,5.2,0,10.4,0,15.7c-1.2-1.1-2.5-2.1-3.7-3.1c-4.7-0.1-9.5-0.1-14.2-0.2
			c0,11.9,0,23.8,0,35.8c1,1.3,2,2.6,3,3.9c-7.1-0.3-14.2-0.7-21.3-1c1.1-1.2,2.1-2.5,3.2-3.7c0-11.7,0-23.4,0-35.1
			c-4.7-0.1-9.4-0.1-14.1-0.1c-1.2,1-2.4,2-3.7,2.9c0-5,0-10,0-15C579,159.1,595.9,159.1,612.9,159.1z"/>
		<path fill="#FFFFFF" d="M636.2,198.1c-7.2-13.3-14.4-26.2-21.6-38.9c7,0,14,0,21,0c-1,1-2,2-3,3c4,8.3,8.1,16.7,12.1,25.2
			c4.3-8.3,8.5-16.7,12.8-25.2c-0.9-1-1.8-1.9-2.7-2.9c5.8,0,11.6,0,17.4,0c0,0.1,0,0.1,0,0.2c-7,13.2-14,26.1-21,38.7c0,4,0,8,0,12
			c1,1.4,2,2.7,3,4.1c-7.1-0.4-14.2-0.8-21.3-1.2c1.1-1.3,2.1-2.6,3.2-3.9C636.2,205.4,636.2,201.7,636.2,198.1z"/>
	</g>
</g>
<path fill="none" stroke="#FFFFFF" stroke-width="6" stroke-linejoin="round" stroke-miterlimit="10" d="M373.1,147.5
	c0-8.4-6.8-15.2-15.2-15.2s-15.2,6.8-15.2,15.2"/>
<polygon fill="#FFFFFF" points="270.9,148.1 281.1,148.1 280.7,146.1 "/>
<path fill="none" stroke="#FFFFFF" stroke-width="10" stroke-linejoin="round" stroke-miterlimit="10" d="M275.8,147.1L269.3,90
	c-27.2,2.7-43.9,13-43.9,13l9,44"/>
<polygon fill="#FFFFFF" points="229.5,148.1 239.7,148.1 239.3,146.1 "/>
<path fill="none" stroke="#FFFFFF" stroke-width="10" stroke-linejoin="round" stroke-miterlimit="10" d="M482.9,147.5l9.2-43.7
	c0,0-17.6-10.7-45.3-13.5c-0.5-0.1-1.1-0.1-1.6-0.2l-6,57.1"/>
<polygon fill="#FFFFFF" points="487.8,148.6 477.6,148.6 478,146.5 "/>
<path fill="none" stroke="#FFFFFF" stroke-width="10" stroke-linejoin="round" stroke-miterlimit="10" d="M439.2,147.3l8.7-82.7
	c0,0-36.3-17.2-90.7-17.2c-54.3,0-90.4,17.2-90.4,17.2l9,83"/>
<polygon fill="#FFFFFF" points="444.2,147.8 434.1,147.8 434.5,145.8 "/>
</svg>
